<svg width="66" height="65" viewBox="0 0 66 65" fill="none" xmlns="http://www.w3.org/2000/svg">
<path d="M32.029 2.12132C32.2789 1.10697 33.7211 1.10694 33.971 2.12133L37.911 18.1137C38.3628 19.9475 40.3764 20.9127 42.089 20.1163L56.7747 13.2868C57.715 12.8495 58.6173 13.9561 57.9997 14.7891L48.1125 28.1261C47.0153 29.6061 47.4989 31.7162 49.1312 32.5706L63.7039 40.1988C64.6187 40.6776 64.2961 42.06 63.2639 42.0845L47.0014 42.47C45.1389 42.5141 43.7666 44.2273 44.1301 46.0545L47.3714 62.3463C47.5748 63.3686 46.2741 63.9812 45.6155 63.1732L35.3254 50.5488C34.1249 49.076 31.8751 49.076 30.6746 50.5488L20.3845 63.1732C19.7259 63.9812 18.4252 63.3686 18.6286 62.3463L21.8699 46.0545C22.2334 44.2273 20.8611 42.5141 18.9986 42.47L2.73611 42.0845C1.70392 42.06 1.38129 40.6776 2.29605 40.1988L16.8688 32.5706C18.5011 31.7162 18.9847 29.6061 17.8875 28.1261L8.00028 14.7891C7.38272 13.9561 8.28503 12.8495 9.22528 13.2868L23.911 20.1163C25.6236 20.9127 27.6372 19.9475 28.089 18.1137L32.029 2.12132Z" stroke="#82A082" stroke-width="2"/>
</svg>
