<svg width="24" height="28" viewBox="0 0 24 28" fill="none" xmlns="http://www.w3.org/2000/svg">
<path d="M3.7903 4.09035C8.32418 -0.443528 15.6751 -0.443528 20.209 4.09035C24.7428 8.62423 24.7428 15.9752 20.209 20.509L18.6263 22.0742C17.4598 23.219 15.9463 24.691 14.0851 26.4904C12.9222 27.6149 11.0771 27.6148 9.91431 26.4901L5.25946 21.9622C4.67445 21.3878 4.18476 20.9034 3.7903 20.509C-0.743577 15.9752 -0.743577 8.62423 3.7903 4.09035ZM18.7947 5.50456C15.0419 1.75172 8.95734 1.75172 5.20452 5.50456C1.45168 9.25739 1.45168 15.342 5.20452 19.0948L7.18727 21.0514C8.27916 22.12 9.65178 23.4538 11.3047 25.0525C11.6923 25.4273 12.3072 25.4274 12.695 25.0526L17.2215 20.6506C17.8467 20.0369 18.3712 19.5182 18.7947 19.0948C22.5475 15.342 22.5475 9.25739 18.7947 5.50456ZM11.9996 8.66455C14.2099 8.66455 16.0016 10.4563 16.0016 12.6666C16.0016 14.8769 14.2099 16.6686 11.9996 16.6686C9.78938 16.6686 7.99755 14.8769 7.99755 12.6666C7.99755 10.4563 9.78938 8.66455 11.9996 8.66455ZM11.9996 10.6645C10.8939 10.6645 9.99752 11.5609 9.99752 12.6666C9.99752 13.7724 10.8939 14.6686 11.9996 14.6686C13.1054 14.6686 14.0016 13.7724 14.0016 12.6666C14.0016 11.5609 13.1054 10.6645 11.9996 10.6645Z" fill="#1F1E1E"/>
</svg>
