<svg width="22" height="28" viewBox="0 0 22 28" fill="none" xmlns="http://www.w3.org/2000/svg">
<path d="M4.40933 1.22475L5.96533 0.755734C7.72868 0.224214 9.61261 1.08319 10.3678 2.76296L11.5701 5.43725C12.2137 6.86903 11.8745 8.55171 10.7265 9.62231L8.73408 11.4803C8.67581 11.5346 8.63888 11.6079 8.63008 11.6871C8.57088 12.2166 8.92995 13.2478 9.75688 14.6802C10.3583 15.7219 10.9026 16.4523 11.3659 16.8632C11.6887 17.1495 11.8665 17.2114 11.9421 17.1888L14.6226 16.3694C16.1234 15.9106 17.7498 16.4576 18.6681 17.7303L20.3757 20.097C21.4505 21.5866 21.2571 23.6416 19.9235 24.9047L18.7417 26.0239C17.4665 27.2316 15.651 27.6816 13.9594 27.2095C10.2873 26.1846 6.99485 23.0856 4.04569 17.9776C1.09243 12.8624 0.0561737 8.45645 1.01144 4.76073C1.4486 3.06943 2.73677 1.72891 4.40933 1.22475ZM4.98653 3.13964C3.983 3.44213 3.21009 4.24645 2.9478 5.26124C2.14427 8.36992 3.06275 12.2751 5.77775 16.9776C8.48915 21.6738 11.4077 24.4208 14.497 25.2831C15.5121 25.5664 16.6013 25.2964 17.3665 24.5718L18.5482 23.4526C19.1545 22.8784 19.2423 21.9443 18.7538 21.2672L17.0462 18.9006C16.6287 18.3222 15.8894 18.0734 15.2073 18.282L12.5202 19.1035C10.9606 19.5684 9.54501 18.3131 8.02488 15.6802C7.00047 13.9059 6.52301 12.5343 6.64244 11.4651C6.70431 10.9111 6.9624 10.3977 7.37003 10.0175L9.36248 8.1596C9.88435 7.67296 10.0385 6.90811 9.74595 6.25731L8.54368 3.58301C8.20043 2.81948 7.34405 2.42903 6.54253 2.67063L4.98653 3.13964Z" fill="#1F1E1E"/>
</svg>
