<svg width="28" height="28" viewBox="0 0 28 28" fill="none" xmlns="http://www.w3.org/2000/svg">
<path d="M2.66675 13.9998C2.66675 7.74061 7.74085 2.6665 14.0001 2.6665C20.2593 2.6665 25.3334 7.74061 25.3334 13.9998C25.3334 20.259 20.2593 25.3332 14.0001 25.3332C7.74085 25.3332 2.66675 20.259 2.66675 13.9998ZM14.0001 0.666504C6.63628 0.666504 0.666748 6.63604 0.666748 13.9998C0.666748 21.3636 6.63628 27.3332 14.0001 27.3332C21.3638 27.3332 27.3334 21.3636 27.3334 13.9998C27.3334 6.63604 21.3638 0.666504 14.0001 0.666504ZM13.9909 6.8642C13.9247 6.37628 13.5061 5.99984 13.0001 5.99984C12.4481 5.99984 12.0001 6.44784 12.0001 6.99984V14.9998L12.0093 15.1354C12.0754 15.6234 12.4941 15.9998 13.0001 15.9998H18.3334L18.469 15.9906C18.957 15.9245 19.3334 15.5058 19.3334 14.9998C19.3334 14.4478 18.8854 13.9998 18.3334 13.9998H14.0001V6.99984L13.9909 6.8642Z" fill="#212121"/>
</svg>
