<svg width="45" height="45" viewBox="0 0 45 45" fill="none" xmlns="http://www.w3.org/2000/svg">
<path d="M24.7777 36.1255C24.8181 31.9952 23.771 28.6364 22.439 28.6233C21.1069 28.6104 19.9943 31.9481 19.954 36.0784C19.9136 40.2088 20.9607 43.5676 22.2927 43.5806C23.6248 43.5937 24.7374 40.2559 24.7777 36.1255Z" stroke="#F3F3F3" stroke-width="1.5" stroke-miterlimit="10"/>
<path d="M17.0523 35.1875C19.3195 31.7348 20.2547 28.343 19.1412 27.6119C18.0276 26.8807 15.287 29.087 13.0199 32.5397C10.7527 35.9925 9.81756 39.3841 10.931 40.1154C12.0446 40.8465 14.7851 38.6403 17.0523 35.1875Z" stroke="#F3F3F3" stroke-width="1.5" stroke-miterlimit="10"/>
<path d="M11.0513 30.2337C14.8253 28.555 17.4459 26.2074 16.9044 24.9903C16.3631 23.7731 12.8648 24.1473 9.09073 25.8261C5.3167 27.5048 2.69615 29.8524 3.23754 31.0695C3.77893 32.2867 7.27726 31.9125 11.0513 30.2337Z" stroke="#F3F3F3" stroke-width="1.5" stroke-miterlimit="10"/>
<path d="M16.4515 21.577C16.6541 20.2604 13.5089 18.6837 9.42651 18.0553C5.344 17.4269 1.87024 17.9849 1.66759 19.3015C1.46495 20.6182 4.61016 22.1948 8.69263 22.8232C12.7751 23.4515 16.2489 22.8935 16.4515 21.577Z" stroke="#F3F3F3" stroke-width="1.5" stroke-miterlimit="10"/>
<path d="M17.9172 18.4406C18.7994 17.4425 17.0055 14.4158 13.9105 11.6805C10.8155 8.94513 7.59133 7.53684 6.70917 8.535C5.82701 9.53317 7.62089 12.5598 10.7159 15.2951C13.8109 18.0305 17.0351 19.4387 17.9172 18.4406Z" stroke="#F3F3F3" stroke-width="1.5" stroke-miterlimit="10"/>
<path d="M20.8363 16.6076C22.118 16.2449 22.2454 12.7288 21.1207 8.75439C19.9961 4.7799 18.0453 1.85199 16.7635 2.2147C15.4817 2.57741 15.3544 6.09338 16.479 10.0679C17.6036 14.0423 19.5545 16.9703 20.8363 16.6076Z" stroke="#F3F3F3" stroke-width="1.5" stroke-miterlimit="10"/>
<path d="M28.7626 10.1915C29.9654 6.23995 29.9075 2.72214 28.6331 2.33423C27.3587 1.94631 25.3505 4.83519 24.1476 8.78672C22.9449 12.7382 23.0028 16.2561 24.2772 16.644C25.5516 17.0319 27.5598 14.143 28.7626 10.1915Z" stroke="#F3F3F3" stroke-width="1.5" stroke-miterlimit="10"/>
<path d="M34.4263 15.5308C37.5742 12.8564 39.4269 9.86545 38.5644 8.85027C37.7019 7.83507 34.4508 9.1801 31.303 11.8544C28.1551 14.5287 26.3024 17.5197 27.1649 18.5349C28.0273 19.5501 31.2784 18.2051 34.4263 15.5308Z" stroke="#F3F3F3" stroke-width="1.5" stroke-miterlimit="10"/>
<path d="M33.713 40.347C34.8407 39.638 33.9726 36.2284 31.774 32.7316C29.5754 29.2349 26.8788 26.975 25.7511 27.6841C24.6234 28.3931 25.4915 31.8026 27.6901 35.2994C29.8887 38.7962 32.5853 41.0561 33.713 40.347Z" stroke="#F3F3F3" stroke-width="1.5" stroke-miterlimit="10"/>
<path d="M36.299 23.0868C40.3931 22.539 43.5688 21.0247 43.3921 19.7043C43.2155 18.384 39.7534 17.7577 35.6593 18.3054C31.5653 18.8531 28.3895 20.3674 28.5662 21.6878C28.7429 23.0081 32.2049 23.6345 36.299 23.0868Z" stroke="#F3F3F3" stroke-width="1.5" stroke-miterlimit="10"/>
<path d="M41.5804 31.4469C42.1457 30.2407 39.5719 27.842 35.8317 26.0891C32.0916 24.3363 28.6013 23.8932 28.036 25.0994C27.4707 26.3057 30.0444 28.7044 33.7847 30.4573C37.5248 32.21 41.0151 32.6532 41.5804 31.4469Z" stroke="#F3F3F3" stroke-width="1.5" stroke-miterlimit="10"/>
<path d="M36.299 23.0868C40.3931 22.539 43.5687 21.0247 43.3921 19.7043C43.2155 18.384 39.7534 17.7577 35.6593 18.3054C31.5653 18.8531 28.3895 20.3674 28.5662 21.6878C28.7429 23.0081 32.2049 23.6345 36.299 23.0868Z" stroke="#F3F3F3" stroke-width="1.5" stroke-miterlimit="10"/>
</svg>
