<svg width="36" height="36" viewBox="0 0 36 36" fill="none" xmlns="http://www.w3.org/2000/svg">
<path d="M17.1356 2.21142C17.3835 1.19374 18.8307 1.19374 19.0787 2.21142L20.5514 8.25541C21.0005 10.0985 23.026 11.0672 24.7427 10.2601L30.2716 7.66032C31.2095 7.21931 32.1164 8.32075 31.5036 9.15655L27.6469 14.4166C26.5646 15.8928 27.0451 17.9858 28.6629 18.842L34.3714 21.8633C35.2816 22.3451 34.9571 23.7222 33.9275 23.7469L27.655 23.8972C25.7955 23.9418 24.4242 25.6504 24.7834 27.4755L26.022 33.7704C26.2236 34.7949 24.9176 35.404 24.2623 34.5911L20.4427 29.8531C19.2419 28.3635 16.9724 28.3635 15.7715 29.8531L11.952 34.5911C11.2967 35.404 9.99072 34.7949 10.1923 33.7704L11.4309 27.4755C11.7901 25.6504 10.4188 23.9418 8.55926 23.8972L2.28675 23.7469C1.25713 23.7222 0.932637 22.3451 1.84293 21.8633L7.55135 18.842C9.16917 17.9858 9.64968 15.8928 8.56735 14.4166L4.71071 9.15656C4.0979 8.32074 5.0048 7.21931 5.94269 7.66031L11.4716 10.2601C13.1883 11.0672 15.2138 10.0985 15.6629 8.25541L17.1356 2.21142Z" stroke="#82A082" stroke-width="2"/>
</svg>
