<svg width="35" height="35" viewBox="0 0 35 35" fill="none" xmlns="http://www.w3.org/2000/svg">
<path d="M17.5 35C27.165 35 35 27.165 35 17.5C35 7.83502 27.165 0 17.5 0C7.83502 0 0 7.83502 0 17.5C0 27.165 7.83502 35 17.5 35Z" fill="#3C5A99"/>
<path d="M18.8605 26.25V18.2793H21.547L21.9503 15.1587H18.8605V13.1729C18.8605 12.2705 19.11 11.6587 20.402 11.6587H22.0392V8.87647C21.7555 8.83887 20.778 8.75342 19.6398 8.75342C17.2643 8.75342 15.6373 10.2026 15.6373 12.8652V15.1621H12.9611V18.2827H15.6373V26.25H18.8605Z" fill="white"/>
</svg>
