<svg width="35" height="35" viewBox="0 0 35 35" fill="none" xmlns="http://www.w3.org/2000/svg">
<path d="M17.5 35C27.165 35 35 27.165 35 17.5C35 7.83502 27.165 0 17.5 0C7.83502 0 0 7.83502 0 17.5C0 27.165 7.83502 35 17.5 35Z" fill="#E4405F"/>
<path d="M17.5 8.75C15.1245 8.75 14.8271 8.76025 13.894 8.80127C12.9609 8.8457 12.3286 8.99268 11.7715 9.20801C11.1973 9.43018 10.7085 9.73096 10.2197 10.2163C9.73096 10.7017 9.43359 11.1904 9.21143 11.7681C8.99609 12.3252 8.84912 12.9609 8.80469 13.8906C8.76025 14.8237 8.75342 15.1211 8.75342 17.4966C8.75342 19.8721 8.76367 20.1694 8.80469 21.1025C8.84912 22.0322 8.99609 22.668 9.21143 23.2251C9.43359 23.7993 9.73437 24.2881 10.2197 24.7769C10.7051 25.2622 11.1938 25.563 11.7715 25.7852C12.3286 26.0005 12.9644 26.1475 13.894 26.1919C14.8271 26.2363 15.1245 26.2432 17.5 26.2432C19.8755 26.2432 20.1729 26.2329 21.106 26.1919C22.0356 26.1475 22.6714 26.0005 23.2285 25.7852C23.8027 25.563 24.2915 25.2622 24.7803 24.7769C25.2656 24.2915 25.5664 23.8027 25.7886 23.2251C26.0039 22.668 26.1509 22.0322 26.1953 21.1025C26.2397 20.1694 26.2466 19.8721 26.2466 17.4966C26.2466 15.1211 26.2363 14.8237 26.1953 13.8906C26.1509 12.9609 26.0039 12.3252 25.7886 11.7681C25.5664 11.1938 25.2656 10.7051 24.7803 10.2163C24.2949 9.73096 23.8062 9.43018 23.2285 9.20801C22.6714 8.99268 22.0356 8.8457 21.106 8.80127C20.1729 8.76025 19.8755 8.75 17.5 8.75ZM17.5 10.3257C19.8345 10.3257 20.1147 10.3359 21.0376 10.377C21.8921 10.418 22.3535 10.5581 22.6611 10.6812C23.0713 10.8384 23.3618 11.0298 23.6694 11.334C23.9736 11.6416 24.165 11.9321 24.3223 12.3423C24.4419 12.6499 24.5855 13.1113 24.623 13.9658C24.6641 14.8887 24.6743 15.1655 24.6743 17.5034C24.6743 19.8413 24.6641 20.1182 24.6196 21.041C24.5752 21.8955 24.4316 22.3569 24.312 22.6645C24.1479 23.0747 23.9634 23.3652 23.6558 23.6729C23.3516 23.977 23.0542 24.1685 22.6509 24.3257C22.3433 24.4453 21.875 24.5889 21.0205 24.6265C20.0908 24.6675 19.8174 24.6777 17.4761 24.6777C15.1348 24.6777 14.8613 24.6675 13.9316 24.623C13.0771 24.5786 12.6089 24.4351 12.3013 24.3154C11.8877 24.1514 11.6006 23.9668 11.2964 23.6592C10.9888 23.355 10.7939 23.0576 10.6401 22.6543C10.5205 22.3467 10.377 21.8784 10.3325 21.0239C10.2983 20.1045 10.2881 19.8208 10.2881 17.4932C10.2881 15.1621 10.2983 14.8784 10.3325 13.9487C10.377 13.0942 10.5171 12.626 10.6401 12.3184C10.7939 11.9014 10.9888 11.6177 11.2964 11.3101C11.6006 11.0059 11.8877 10.8076 12.3013 10.6538C12.6089 10.5342 13.0669 10.3906 13.9214 10.3462C14.8511 10.312 15.1245 10.3018 17.4658 10.3018L17.5 10.3257ZM17.5 13.0054C15.0186 13.0054 13.0054 15.0186 13.0054 17.5C13.0054 19.9814 15.0186 21.9946 17.5 21.9946C19.9814 21.9946 21.9946 19.9814 21.9946 17.5C21.9946 15.0186 19.9814 13.0054 17.5 13.0054ZM17.5 20.4155C15.8901 20.4155 14.5845 19.1099 14.5845 17.5C14.5845 15.8901 15.8901 14.5845 17.5 14.5845C19.1099 14.5845 20.4155 15.8901 20.4155 17.5C20.4155 19.1099 19.1099 20.4155 17.5 20.4155ZM23.2217 12.8311C23.2217 13.4121 22.75 13.8804 22.1724 13.8804C21.5913 13.8804 21.123 13.4087 21.123 12.8311C21.123 12.2534 21.5947 11.7817 22.1724 11.7817C22.75 11.7783 23.2217 12.25 23.2217 12.8311Z" fill="white"/>
</svg>
