<svg width="35" height="35" viewBox="0 0 35 35" fill="none" xmlns="http://www.w3.org/2000/svg">
<path d="M17.5 35C27.165 35 35 27.165 35 17.5C35 7.83502 27.165 0 17.5 0C7.83502 0 0 7.83502 0 17.5C0 27.165 7.83502 35 17.5 35Z" fill="#1DA1F2"/>
<path d="M26.5918 12.127C25.9492 12.4106 25.2622 12.6021 24.5376 12.6909C25.2759 12.2466 25.8433 11.5459 26.1099 10.7119C25.4194 11.1152 24.6504 11.4092 23.8369 11.5732C23.1841 10.876 22.2578 10.4385 21.2256 10.4385C19.25 10.4385 17.647 12.0415 17.647 14.0137C17.647 14.2974 17.6812 14.5708 17.7393 14.8306C14.7656 14.6904 12.127 13.2617 10.3633 11.1016C10.0522 11.6279 9.87793 12.2363 9.87793 12.9028C9.87793 14.147 10.5103 15.2407 11.4707 15.8833C10.8828 15.8628 10.3325 15.7021 9.85059 15.4355V15.48C9.85059 17.2163 11.0811 18.6621 12.7217 18.9902C12.4209 19.0723 12.103 19.1133 11.7783 19.1133C11.5493 19.1133 11.3306 19.0928 11.1118 19.0518C11.5698 20.4736 12.8892 21.5093 14.4614 21.5366C13.2412 22.4971 11.6895 23.0679 10.0249 23.0679C9.74121 23.0679 9.45752 23.0508 9.17383 23.02C10.7666 24.0352 12.6431 24.6265 14.6699 24.6265C21.2495 24.6265 24.8486 19.1748 24.8486 14.4546C24.8486 14.3042 24.8486 14.1504 24.8384 13.9966C25.5356 13.4941 26.1475 12.8618 26.626 12.144L26.5918 12.127Z" fill="white"/>
</svg>
