<svg width="54" height="54" viewBox="0 0 54 54" fill="none" xmlns="http://www.w3.org/2000/svg">
<path d="M26.0288 2.15818C26.2779 1.14245 27.7221 1.14244 27.9712 2.15819L30.9172 14.1702C31.3679 16.0078 33.3864 16.9744 35.1006 16.1736L46.0975 11.0364C47.0368 10.5976 47.941 11.702 47.3254 12.5362L39.8671 22.6425C38.776 24.1209 39.2584 26.224 40.8847 27.0791L51.8872 32.8646C52.8001 33.3447 52.4768 34.7249 51.4456 34.7494L39.2071 35.0409C37.3458 35.0852 35.974 36.7965 36.3357 38.6229L38.7703 50.9154C38.9729 51.9386 37.67 52.5498 37.0128 51.7398L29.3296 42.2708C28.129 40.7911 25.871 40.7911 24.6704 42.2708L16.9872 51.7398C16.33 52.5498 15.0271 51.9386 15.2297 50.9154L17.6643 38.6229C18.026 36.7965 16.6542 35.0852 14.7929 35.0409L2.5544 34.7494C1.52325 34.7249 1.19988 33.3447 2.11279 32.8646L13.1153 27.0791C14.7416 26.224 15.224 24.1209 14.1329 22.6425L6.6746 12.5362C6.059 11.702 6.96318 10.5976 7.90247 11.0364L18.8994 16.1736C20.6136 16.9744 22.6321 16.0078 23.0828 14.1702L26.0288 2.15818Z" stroke="#CACEC8" stroke-width="2"/>
</svg>
