<svg width="70" height="69" viewBox="0 0 70 69" fill="none" xmlns="http://www.w3.org/2000/svg">
<path d="M34.0291 2.11144C34.2792 1.09743 35.7208 1.09743 35.9709 2.11144L40.2423 19.4277C40.6944 21.2605 42.7067 22.2252 44.4188 21.43L60.3346 14.0375C61.2752 13.6007 62.177 14.7078 61.5589 15.5405L50.8602 29.9544C49.7614 31.4348 50.2454 33.5468 51.8792 34.401L67.6449 42.6436C68.5602 43.1221 68.2378 44.505 67.2053 44.5295L49.5993 44.9463C47.7365 44.9904 46.3641 46.7042 46.7281 48.5316L50.2386 66.155C50.4422 67.177 49.1421 67.79 48.4831 66.9826L37.3243 53.309C36.1238 51.8381 33.8762 51.8381 32.6757 53.309L21.5169 66.9826C20.8579 67.79 19.5578 67.177 19.7614 66.155L23.2719 48.5316C23.6359 46.7042 22.2635 44.9904 20.4007 44.9463L2.79471 44.5295C1.76222 44.505 1.43983 43.1221 2.35506 42.6436L18.1208 34.401C19.7546 33.5468 20.2386 31.4348 19.1398 29.9544L8.44111 15.5405C7.82304 14.7077 8.72483 13.6007 9.66534 14.0375L25.5812 21.43C27.2933 22.2252 29.3056 21.2605 29.7577 19.4277L34.0291 2.11144Z" stroke="#CACEC8" stroke-width="2"/>
</svg>
